<svg xmlns="http://www.w3.org/2000/svg" width="512.001" height="512.001" shape-rendering="geometricPrecision" text-rendering="geometricPrecision" image-rendering="optimizeQuality" fill-rule="evenodd" clip-rule="evenodd" viewBox="0 0 13546.68 13546.68"><path fill-rule="nonzero" d="M6773.4 0c1869.98 0 3563.54 758.27 4789.27 1984.01 1225.74 1225.73 1984.01 2919.17 1984.01 4789.39 0 1869.98-758.27 3563.54-1984.01 4789.27-1225.61 1225.74-2919.05 1984-4789.27 1984-1870.22 0-3563.66-758.26-4789.39-1984C758.27 10336.94.01 8643.38.01 6773.4c0-1870.22 758.39-3563.66 1984-4789.39C3209.74 758.27 4903.42 0 6773.4 0zm1482.44 8766.36h-906.39v-505.55c-26.6 0-350.42 590.19-1108.93 590.19-437.6 0-783.78-154.77-1039.88-464.32-255.02-310.63-383.07-729.25-383.07-1258.14 0-561.17 143.65-1013.16 430.95-1356.08 287.18-344.13 664.68-515.59 1132.26-515.59 449.81 0 767.1 165.9 951.98 498.9h16.69v-939.76H6243.91v-613.53h1105.54v-508.82h906.39v508.82h473.15v613.53h-473.15v3950.35zm-894.06-1960.67c0-241.59-73.52-442.07-221.64-601.31-148-160.34-333.97-240.51-557.79-240.51-262.75 0-469.88 102.54-619.09 305.08-150.3 203.86-226 481-226 833.96 0 324.06 71.22 577.86 213.79 761.53 142.56 183.8 340.74 275.09 595.63 275.09 241.59 0 438.69-95.77 592.37-288.39 152.48-192.62 227.08-432.03 222.73-719.21v-326.24zm858.39 3047.35h-3281.2v-584.51h3281.2v584.51zm2709.38-7235.91C9866.09 1553.66 8396.47 895.76 6773.4 895.76c-1623.07 0-3092.81 657.9-4156.27 1721.37C1553.79 3680.59 895.76 5150.21 895.76 6773.4c0 1623.07 657.91 3092.69 1721.37 4156.15 1063.46 1063.46 2533.08 1721.37 4156.27 1721.37 1623.19 0 3092.81-657.91 4156.15-1721.37 1063.47-1063.46 1721.37-2533.08 1721.37-4156.15 0-1623.19-657.9-3092.81-1721.37-4156.27z"/></svg>